<svg width="24" height="24" viewBox="0 0 24 24" fill="none" xmlns="http://www.w3.org/2000/svg">
<path d="M23.9933 23.9997V23.9987H23.9993V15.1967C23.9993 10.8907 23.0723 7.57373 18.0383 7.57373C15.6183 7.57373 13.9943 8.90173 13.3313 10.1607H13.2613V7.97573H8.48828V23.9987H13.4583V16.0647C13.4583 13.9757 13.8543 11.9557 16.4413 11.9557C18.9903 11.9557 19.0283 14.3397 19.0283 16.1987V23.9997H23.9933Z" fill="black"/>
<path d="M0.396484 7.97656H5.37249V23.9996H0.396484V7.97656Z" fill="black"/>
<path d="M2.882 0C1.291 0 0 1.291 0 2.882C0 4.473 1.291 5.791 2.882 5.791C4.473 5.791 5.764 4.473 5.764 2.882C5.763 1.291 4.472 0 2.882 0V0Z" fill="black"/>
</svg>
