<svg width="23" height="24" viewBox="0 0 23 24" fill="none" xmlns="http://www.w3.org/2000/svg">
<path d="M11.5 0C5.14625 0 0 5.50948 0 12.3045C0 17.742 3.29475 22.3531 7.86312 23.9788C8.43812 24.0946 8.64896 23.7137 8.64896 23.3871C8.64896 23.095 8.63937 22.3207 8.63458 21.295C5.43567 22.0369 4.761 19.6442 4.761 19.6442C4.23775 18.2241 3.48162 17.8443 3.48162 17.8443C2.43992 17.0815 3.56212 17.0971 3.56212 17.0971C4.71692 17.1827 5.32354 18.3649 5.32354 18.3649C6.34896 20.2463 8.0155 19.7027 8.67292 19.3886C8.77642 18.5924 9.07254 18.0509 9.40125 17.743C6.84729 17.4352 4.163 16.3771 4.163 11.6628C4.163 10.3198 4.60862 9.22212 5.34654 8.36127C5.21717 8.05031 4.82904 6.7992 5.44717 5.10462C5.44717 5.10462 6.41029 4.77488 8.60967 6.36617C9.52967 6.09278 10.5072 5.95713 11.4847 5.95087C12.4622 5.95713 13.4397 6.09278 14.3597 6.36617C16.5447 4.77488 17.5078 5.10462 17.5078 5.10462C18.1259 6.7992 17.7378 8.05031 17.6228 8.36127C18.3559 9.22212 18.8015 10.3198 18.8015 11.6628C18.8015 16.3897 16.1134 17.43 13.5547 17.7326C13.9572 18.102 14.3309 18.8564 14.3309 20.0094C14.3309 21.656 14.3165 22.9791 14.3165 23.3788C14.3165 23.7012 14.5178 24.0862 15.1072 23.9631C19.7081 22.3478 23 17.7336 23 12.3045C23 5.50948 17.8509 0 11.5 0Z" fill="black"/>
</svg>
